# xmcd
#
# Track frame offsets:
#	150
#	23028
#	42220
#	55550
#	73312
#	95434
#	112385
#	129891
#	146329
#	171856
#	183862
#	202859
#	216442
#	241973
#	262162
#	283588
#	299543
#
# Disc length: 4256
#
# Revision: 1
# Processed by: cddbd v1.5.1PL0 Copyright (c) Steve Scherf et al.
# Submitted via: EasyCDDAExtractor 5.0.2.1
# Normalized: r0:DSETVAR1
#
DISCID=05109e11
DTITLE=Various Artist - The Greatest Love Songs ever
DYEAR=2002
DGENRE=Ballad
TTITLE0=Sarah Connor - From Sarah With Love
TTITLE1=Chris De Burgh - The Lady In red
TTITLE2=Ben E. King - Stand By Me
TTITLE3=WET WET WET - Love Is All Around
TTITLE4=Toto - I Won't Hold Your Back
TTITLE5=Cyndi Lauper - True Colors
TTITLE6=The Pretenders - I'll Stand By You
TTITLE7=Aretha Franklin - Unforgettable
TTITLE8=Savage Garden - To The Moon and Back
TTITLE9=The Temptations - My Girl
TTITLE10=Michael Bolton - How Am I Supposed To Live Without You
TTITLE11=Van Morrison - Brown Eyed Girl
TTITLE12=Isley Brothers - Caravan Of Love
TTITLE13=Janis Joplin - Me And Bobby McGee
TTITLE14=Roberta Flack - Killing Me Softly With His Song
TTITLE15=Andy Williams and Denise Van Outen - Can't Take My Eyes Off You
TTITLE16=Paul Young - Everytime You Go Away
EXTD=
EXTT0=
EXTT1=
EXTT2=
EXTT3=
EXTT4=
EXTT5=
EXTT6=
EXTT7=
EXTT8=
EXTT9=
EXTT10=
EXTT11=
EXTT12=
EXTT13=
EXTT14=
EXTT15=
EXTT16=
PLAYORDER=
